<svg xmlns="http://www.w3.org/2000/svg" viewBox="0 0 1200 800"><defs><linearGradient id="bg" x1="0" y1="0" x2="1" y2="1"><stop stop-color="#fbf8ef"/><stop offset=".55" stop-color="#e5edd8"/><stop offset="1" stop-color="#cbdab5"/></linearGradient><linearGradient id="gold" x1="0" x2="1"><stop stop-color="#fff0bd"/><stop offset=".5" stop-color="#b89a43"/><stop offset="1" stop-color="#7d6228"/></linearGradient><filter id="s"><feDropShadow dx="0" dy="24" stdDeviation="28" flood-opacity=".18"/></filter><style>.t{font:42px Georgia,serif;fill:#17351f}.l{font:16px Arial;fill:#59714a;letter-spacing:3px}</style></defs><rect width="1200" height="800" fill="url(#bg)"/><circle cx="930" cy="155" r="245" fill="#fff" opacity=".45"/><circle cx="220" cy="620" r="220" fill="#e8ddbf" opacity=".38"/><g opacity=".42" fill="none" stroke="#3c642c" stroke-width="12" stroke-linecap="round"><path d="M80 620c80-120 165-160 250-230"/><path d="M170 565c80-120 165-160 250-230"/><path d="M260 510c80-120 165-160 250-230"/><path d="M350 455c80-120 165-160 250-230"/><path d="M440 400c80-120 165-160 250-230"/><path d="M530 620c80-120 165-160 250-230"/><path d="M620 565c80-120 165-160 250-230"/><path d="M710 510c80-120 165-160 250-230"/><path d="M800 455c80-120 165-160 250-230"/><path d="M890 400c80-120 165-160 250-230"/></g><g filter="url(#s)"><ellipse cx="620" cy="612" rx="340" ry="44" fill="#b99b44" opacity=".20"/><rect x="460" y="225" width="180" height="310" rx="34" fill="#1f4d28" stroke="#17351f" stroke-width="5"/><rect x="515" y="115" width="72" height="118" rx="34" fill="#121212"/><rect x="500" y="212" width="100" height="42" rx="8" fill="url(#gold)"/><rect x="488" y="330" width="124" height="134" rx="6" fill="#fffaf0"/><text x="550" y="390" text-anchor="middle" style="font:36px Georgia;fill:#17351f;letter-spacing:4px">LNEH</text><rect x="658" y="315" width="180" height="165" rx="24" fill="#fff6df" stroke="#17351f" stroke-width="5"/><ellipse cx="748" cy="315" rx="90" ry="28" fill="url(#gold)"/><rect x="288" y="365" width="140" height="180" rx="24" fill="#244f2a" stroke="#17351f" stroke-width="5"/><rect x="330" y="300" width="55" height="70" rx="12" fill="url(#gold)"/></g><g><path d="M120 180c30-80 70-110 132-140 0 96-42 150-132 140z" fill="#567d3e" opacity="0.25"/><path d="M230 310c30-80 70-110 132-140 0 96-42 150-132 140z" fill="#567d3e" opacity="0.37"/><path d="M340 440c30-80 70-110 132-140 0 96-42 150-132 140z" fill="#567d3e" opacity="0.49"/><path d="M450 180c30-80 70-110 132-140 0 96-42 150-132 140z" fill="#567d3e" opacity="0.61"/><path d="M560 310c30-80 70-110 132-140 0 96-42 150-132 140z" fill="#567d3e" opacity="0.25"/><path d="M670 440c30-80 70-110 132-140 0 96-42 150-132 140z" fill="#567d3e" opacity="0.37"/><path d="M780 180c30-80 70-110 132-140 0 96-42 150-132 140z" fill="#567d3e" opacity="0.49"/><path d="M890 310c30-80 70-110 132-140 0 96-42 150-132 140z" fill="#567d3e" opacity="0.61"/><path d="M1000 440c30-80 70-110 132-140 0 96-42 150-132 140z" fill="#567d3e" opacity="0.25"/></g><text x="72" y="92" class="l">LNEH BOTANICAL SKINCARE</text><text x="72" y="148" class="t">Premium bathroom shelf</text></svg>