<svg xmlns="http://www.w3.org/2000/svg" viewBox="0 0 640 640"><defs><linearGradient id="bg" x1="0" y1="0" x2="1" y2="1"><stop stop-color="#f9f5ea"/><stop offset="1" stop-color="#e6ecd8"/></linearGradient><linearGradient id="glass" x1="0" x2="1"><stop stop-color="#163e22"/><stop offset=".45" stop-color="#2b5a2b"/><stop offset="1" stop-color="#0f2818"/></linearGradient><linearGradient id="gold" x1="0" x2="1"><stop stop-color="#fff1b6"/><stop offset=".5" stop-color="#b99b44"/><stop offset="1" stop-color="#6d5522"/></linearGradient><style>.logo{font:48px Georgia,serif;fill:#14331e;letter-spacing:4px}.small{font:14px Arial,sans-serif;fill:#173d22;letter-spacing:3px}</style></defs><rect width="640" height="640" fill="url(#bg)"/><circle cx="122" cy="128" r="54" fill="#dae7c8" opacity=".55"/><circle cx="528" cy="476" r="82" fill="#fff" opacity=".5"/><path d="M102 488C192 410 455 562 560 372" fill="none" stroke="#587c3f" stroke-width="8" opacity=".18"/><g><rect x="255" y="205" width="130" height="260" rx="25" fill="url(#glass)" stroke="#173d22" stroke-width="4"/><rect x="285" y="120" width="70" height="95" rx="30" fill="#151515"/><rect x="292" y="190" width="56" height="32" rx="6" fill="url(#gold)"/><rect x="276" y="288" width="88" height="112" rx="4" fill="#fffaf0" stroke="#d8c891"/><path d="M306 330c30-20 46-44 46-44-2 36-14 64-46 44z" fill="#547c3e" opacity=".9"/><text x="320" y="270" text-anchor="middle" class="logo">LNEH</text><text x="320" y="350" text-anchor="middle" class="small">HERBAL SERUM</text><rect x="380" y="250" width="120" height="210" rx="28" fill="url(#glass)" stroke="#173d22" stroke-width="4"/><rect x="408" y="205" width="64" height="48" rx="8" fill="url(#gold)"/><ellipse cx="205" cy="445" rx="92" ry="22" fill="#d5c17c" opacity=".42"/></g><text x="320" y="568" text-anchor="middle" style="font:24px Georgia,serif;fill:#173d22">Complete Herbal Ritual Kit</text><text x="320" y="598" text-anchor="middle" style="font:15px Arial;fill:#5d6d50;letter-spacing:1px">Cleanse, treat, moisturize</text></svg>